<?xml version="1.0" encoding="utf-8"?>
<!-- Generator: Adobe Illustrator 27.1.1, SVG Export Plug-In . SVG Version: 6.00 Build 0)  -->
<svg version="1.1" id="_x30_" xmlns="http://www.w3.org/2000/svg" xmlns:xlink="http://www.w3.org/1999/xlink" x="0px" y="0px"
	 viewBox="0 0 98.75 86.09" style="enable-background:new 0 0 98.75 86.09;" xml:space="preserve">
<style type="text/css">
	.st0{fill:none;stroke:#000000;stroke-width:1;stroke-miterlimit:10;}
</style>
<g>
	
		<ellipse transform="matrix(0.9732 -0.2298 0.2298 0.9732 -6.4309 13.1923)" class="st0" cx="53.44" cy="34.21" rx="4.56" ry="4.56"/>
	
		<ellipse transform="matrix(0.7071 -0.7071 0.7071 0.7071 -8.5406 47.8054)" class="st0" cx="53.44" cy="34.21" rx="11.23" ry="11.23"/>
	<line class="st0" x1="49.99" y1="23.53" x2="49.99" y2="14.94"/>
	<line class="st0" x1="57.22" y1="14.85" x2="57.22" y2="23.64"/>
	<line class="st0" x1="53.61" y1="11.99" x2="53.61" y2="11.99"/>
	<path class="st0" d="M49.99,14.94c0.51-1.62,1.93-2.78,3.62-2.96"/>
	<path class="st0" d="M57.22,14.85c-0.46-1.64-1.92-2.79-3.62-2.86"/>
	<line class="st0" x1="53.61" y1="11.99" x2="53.61" y2="11.99"/>
	<line class="st0" x1="48.5" y1="44.3" x2="31.42" y2="85.99"/>
	<line class="st0" x1="58.26" y1="44.35" x2="75.22" y2="84.64"/>
	<line class="st0" x1="63.41" y1="39.37" x2="77.08" y2="71.84"/>
	<line class="st0" x1="30.16" y1="71.97" x2="32.89" y2="65.31"/>
	<line class="st0" x1="43.49" y1="39.43" x2="32.89" y2="65.31"/>
	<path class="st0" d="M30.16,71.97c-0.79,2.03,0.21,4.32,2.24,5.12c0.84,0.33,1.77,0.36,2.63,0.09"/>
	<path class="st0" d="M72.22,77.53c2.71,0.01,4.91-2.18,4.92-4.89c0-0.27-0.02-0.54-0.06-0.8"/>
	<line class="st0" x1="65.23" y1="60.94" x2="57.47" y2="60.94"/>
	<line class="st0" x1="57.46" y1="60.94" x2="57.47" y2="60.94"/>
	<line class="st0" x1="50.13" y1="60.93" x2="50.13" y2="60.93"/>
	<line class="st0" x1="50.13" y1="60.93" x2="41.69" y2="60.93"/>
	<line class="st0" x1="50.13" y1="60.93" x2="50.13" y2="54.41"/>
	<line class="st0" x1="50.13" y1="60.93" x2="50.13" y2="68.32"/>
	<line class="st0" x1="57.47" y1="67.99" x2="57.47" y2="60.94"/>
	<line class="st0" x1="57.47" y1="54.31" x2="57.47" y2="60.94"/>
	<path class="st0" d="M50.13,54.41c0.7-1.47,2.07-2.5,3.67-2.76"/>
	<path class="st0" d="M57.47,54.31c-0.82-1.34-2.14-2.29-3.67-2.66"/>
	<path class="st0" d="M57.47,67.99c-0.68,1.67-2,2.99-3.67,3.66"/>
	<path class="st0" d="M53.8,71.64c-1.73-0.38-3.12-1.64-3.67-3.32"/>
	<line class="st0" x1="4.94" y1="7.34" x2="39.54" y2="7.34"/>
	<line class="st0" x1="44.47" y1="27.45" x2="44.47" y2="12.12"/>
	<line class="st0" x1="32.89" y1="65.31" x2="4.94" y2="65.31"/>
	<line class="st0" x1="0.25" y1="13.72" x2="0.25" y2="58.63"/>
	<path class="st0" d="M4.94,7.34c-2.54,1.2-4.31,3.59-4.69,6.38"/>
	<path class="st0" d="M39.54,7.34c2.38,0.6,4.25,2.42,4.93,4.78"/>
	<path class="st0" d="M4.94,65.31c-2.79-1.05-4.65-3.7-4.69-6.68"/>
	<polyline class="st0" points="18.11,25.08 37.45,25.08 37.45,14.33 25.19,14.33 	"/>
	<line class="st0" x1="18.11" y1="25.08" x2="11.92" y2="25.08"/>
	<polyline class="st0" points="19,14.33 6.6,14.33 6.6,25.08 11.92,25.08 	"/>
	<line class="st0" x1="25.19" y1="14.33" x2="19" y2="14.33"/>
	<circle class="st0" cx="9.92" cy="33.32" r="3.6"/>
	<circle class="st0" cx="21.97" cy="33.32" r="3.6"/>
	<circle class="st0" cx="34.14" cy="33.32" r="3.6"/>
	<circle class="st0" cx="9.92" cy="44.32" r="3.6"/>
	<circle class="st0" cx="21.97" cy="44.32" r="3.6"/>
	<circle class="st0" cx="34.14" cy="44.32" r="3.6"/>
	<circle class="st0" cx="9.92" cy="54.76" r="3.6"/>
	<circle class="st0" cx="21.97" cy="54.76" r="3.6"/>
	<line class="st0" x1="11.92" y1="25.08" x2="19" y2="14.33"/>
	<line class="st0" x1="18.11" y1="25.08" x2="25.19" y2="14.33"/>
	<line class="st0" x1="69.01" y1="1.19" x2="98.5" y2="69.24"/>
	<line class="st0" x1="84.05" y1="69.54" x2="86.23" y2="74.56"/>
	<line class="st0" x1="64.99" y1="25.53" x2="75.61" y2="50.05"/>
	<line class="st0" x1="64.99" y1="25.53" x2="56.75" y2="6.51"/>
	<line class="st0" x1="75.61" y1="50.05" x2="77.79" y2="55.09"/>
	<line class="st0" x1="84.05" y1="69.54" x2="77.79" y2="55.09"/>
	<line class="st0" x1="97.18" y1="71.33" x2="88.84" y2="74.96"/>
	<line class="st0" x1="58.05" y1="4.14" x2="66.39" y2="0.51"/>
	<path class="st0" d="M98.5,69.24c0.03,0.9-0.5,1.73-1.32,2.09"/>
	<path class="st0" d="M88.84,74.96c-0.86,0.45-1.92,0.29-2.61-0.4"/>
	<path class="st0" d="M56.75,6.51c-0.05-0.97,0.45-1.89,1.3-2.37"/>
	<path class="st0" d="M66.39,0.51c0.91-0.53,2.08-0.23,2.62,0.68"/>
	<path class="st0" d="M65.64,7.04c-1.55,0-2.8,1.25-2.8,2.8c0,1.55,1.25,2.8,2.8,2.8s2.8-1.25,2.8-2.8
		C68.44,8.29,67.19,7.04,65.64,7.04z"/>
	<line class="st0" x1="68.21" y1="18.54" x2="62.95" y2="20.82"/>
	<line class="st0" x1="68.26" y1="24.11" x2="64.99" y2="25.53"/>
	<line class="st0" x1="72.44" y1="28.28" x2="67.17" y2="30.56"/>
	<line class="st0" x1="72.48" y1="33.85" x2="69.21" y2="35.27"/>
	<line class="st0" x1="76.66" y1="38.03" x2="71.39" y2="40.31"/>
	<line class="st0" x1="78.84" y1="43.06" x2="73.57" y2="45.35"/>
	<line class="st0" x1="78.88" y1="48.63" x2="75.61" y2="50.05"/>
	<line class="st0" x1="83.06" y1="52.81" x2="77.79" y2="55.09"/>
	<line class="st0" x1="83.1" y1="58.38" x2="79.83" y2="59.79"/>
	<line class="st0" x1="82.02" y1="64.83" x2="87.28" y2="62.55"/>
	<line class="st0" x1="87.32" y1="68.12" x2="84.05" y2="69.54"/>
</g>
</svg>
