<?xml version="1.0" encoding="utf-8"?>
<!-- Generator: Adobe Illustrator 27.1.1, SVG Export Plug-In . SVG Version: 6.00 Build 0)  -->
<svg version="1.1" id="_x30_" xmlns="http://www.w3.org/2000/svg" xmlns:xlink="http://www.w3.org/1999/xlink" x="0px" y="0px"
	 viewBox="0 0 77.17 77.51" style="enable-background:new 0 0 77.17 77.51;" xml:space="preserve">
<style type="text/css">
	.st0{fill:none;stroke:#000000;stroke-width:1;stroke-miterlimit:10;}
</style>
<g>
	<line class="st0" x1="11.33" y1="0.68" x2="42.5" y2="0.24"/>
	<line class="st0" x1="2.54" y1="12.25" x2="9.81" y2="12.19"/>
	<line class="st0" x1="34.09" y1="11.96" x2="18.72" y2="12.1"/>
	<line class="st0" x1="50.46" y1="11.81" x2="49.04" y2="11.83"/>
	<line class="st0" x1="42.89" y1="11.88" x2="49.04" y2="11.83"/>
	<line class="st0" x1="50.9" y1="18.85" x2="42.68" y2="18.87"/>
	<line class="st0" x1="34.38" y1="18.9" x2="18.51" y2="18.95"/>
	<line class="st0" x1="10.09" y1="18.97" x2="4.55" y2="18.99"/>
	<line class="st0" x1="3.12" y1="18.99" x2="4.55" y2="18.99"/>
	<line class="st0" x1="48.99" y1="18.85" x2="44.05" y2="29.16"/>
	<line class="st0" x1="4.55" y1="18.99" x2="8.95" y2="29.07"/>
	<line class="st0" x1="41.21" y1="30.45" x2="11.88" y2="30.63"/>
	<polyline class="st0" points="30.51,30.51 30.32,76.69 22.34,76.66 22.05,30.57 	"/>
	<path class="st0" d="M2.54,12.25c-1.82,0.67-2.74,2.69-2.07,4.51c0.43,1.16,1.44,2.01,2.65,2.23"/>
	<path class="st0" d="M50.9,18.85c1.89-0.95,2.66-3.25,1.71-5.14c-0.44-0.89-1.21-1.57-2.15-1.9"/>
	<path class="st0" d="M11.88,30.63c-1.15-0.09-2.22-0.65-2.93-1.56"/>
	<path class="st0" d="M44.05,29.16c-0.71,0.83-1.75,1.31-2.84,1.28"/>
	<line class="st0" x1="69.29" y1="77.26" x2="49.52" y2="77.26"/>
	<line class="st0" x1="72.1" y1="37.05" x2="72.1" y2="48.78"/>
	<line class="st0" x1="72.1" y1="63.66" x2="72.1" y2="74.18"/>
	<line class="st0" x1="72.1" y1="48.78" x2="72.1" y2="56.59"/>
	<line class="st0" x1="67.85" y1="33.17" x2="51.34" y2="33.17"/>
	<line class="st0" x1="47.11" y1="73.75" x2="47.11" y2="74.52"/>
	<line class="st0" x1="47.11" y1="74.52" x2="47.11" y2="74.61"/>
	<line class="st0" x1="47.11" y1="51.2" x2="47.11" y2="37.51"/>
	<line class="st0" x1="47.11" y1="59.98" x2="47.11" y2="73.75"/>
	<line class="st0" x1="30.43" y1="59.98" x2="47.11" y2="59.98"/>
	<line class="st0" x1="47.11" y1="51.2" x2="30.43" y2="51.2"/>
	<line class="st0" x1="47.11" y1="51.2" x2="47.11" y2="59.98"/>
	<polyline class="st0" points="72.1,63.66 76.75,63.66 76.75,56.59 72.1,56.59 	"/>
	<line class="st0" x1="72.1" y1="56.59" x2="72.1" y2="63.66"/>
	<rect x="52.22" y="39.37" class="st0" width="14.53" height="16.65"/>
	<path class="st0" d="M55,60.9c0-0.45-0.37-0.82-0.82-0.82c-0.45,0-0.82,0.37-0.82,0.82c0,0.45,0.37,0.82,0.82,0.82
		C54.63,61.72,55,61.35,55,60.9z"/>
	<path class="st0" d="M60.05,60.9c0-0.45-0.37-0.82-0.82-0.82s-0.82,0.37-0.82,0.82c0,0.45,0.37,0.82,0.82,0.82
		S60.05,61.35,60.05,60.9z"/>
	<path class="st0" d="M65.39,60.9c0-0.45-0.37-0.82-0.82-0.82s-0.82,0.37-0.82,0.82c0,0.45,0.37,0.82,0.82,0.82
		S65.39,61.35,65.39,60.9z"/>
	<path class="st0" d="M53.35,66.18c0,0.45,0.37,0.82,0.82,0.82c0.45,0,0.82-0.37,0.82-0.82c0-0.45-0.37-0.82-0.82-0.82
		C53.72,65.36,53.35,65.73,53.35,66.18z"/>
	<path class="st0" d="M58.41,66.18c0,0.45,0.37,0.82,0.82,0.82s0.82-0.37,0.82-0.82c0-0.45-0.37-0.82-0.82-0.82
		S58.41,65.73,58.41,66.18z"/>
	<path class="st0" d="M63.75,66.18c0,0.45,0.37,0.82,0.82,0.82s0.82-0.37,0.82-0.82c0-0.45-0.37-0.82-0.82-0.82
		S63.75,65.73,63.75,66.18z"/>
	<path class="st0" d="M53.35,71.69c0,0.45,0.37,0.82,0.82,0.82c0.45,0,0.82-0.37,0.82-0.82s-0.37-0.82-0.82-0.82
		C53.72,70.87,53.35,71.24,53.35,71.69z"/>
	<circle class="st0" cx="59.23" cy="71.69" r="0.82"/>
	<circle class="st0" cx="64.57" cy="71.69" r="0.82"/>
	<polyline class="st0" points="76.92,36.56 76.92,48.78 72.1,48.78 	"/>
	<line class="st0" x1="4.22" y1="12.24" x2="9" y2="1.9"/>
	<line class="st0" x1="49.04" y1="11.83" x2="44.51" y2="1.97"/>
	<path class="st0" d="M9,1.9c0.58-0.71,1.42-1.15,2.34-1.22"/>
	<path class="st0" d="M42.5,0.24c0.92,0.19,1.68,0.84,2.01,1.72"/>
	<ellipse transform="matrix(0.7071 -0.7071 0.7071 0.7071 -6.7003 14.615)" class="st0" cx="14.29" cy="15.4" rx="5.51" ry="5.51"/>
	
		<ellipse transform="matrix(0.9732 -0.2298 0.2298 0.9732 -2.4736 9.2583)" class="st0" cx="38.52" cy="15.25" rx="5.51" ry="5.51"/>
	<path class="st0" d="M47.11,37.51c0.73-1.98,2.27-3.56,4.22-4.35"/>
	<path class="st0" d="M67.85,33.17c1.8,0.8,3.29,2.17,4.24,3.88"/>
	<path class="st0" d="M72.1,74.18c-0.37,1.43-1.42,2.58-2.8,3.08"/>
	<path class="st0" d="M47.11,73.75c-0.04,0.26-0.03,0.52,0,0.77"/>
	<path class="st0" d="M49.52,77.26c-1.33-0.32-2.26-1.44-2.41-2.75"/>
	<path class="st0" d="M20.41,25.1c0,0.45,0.37,0.82,0.82,0.82c0.45,0,0.82-0.37,0.82-0.82c0-0.45-0.37-0.82-0.82-0.82
		C20.78,24.28,20.41,24.64,20.41,25.1z"/>
	<path class="st0" d="M25.91,25.1c0,0.45,0.37,0.82,0.82,0.82c0.45,0,0.82-0.37,0.82-0.82c0-0.45-0.37-0.82-0.82-0.82
		C26.28,24.28,25.91,24.64,25.91,25.1z"/>
	<path class="st0" d="M31.29,25.1c0,0.45,0.37,0.82,0.82,0.82c0.45,0,0.82-0.37,0.82-0.82c0-0.45-0.37-0.82-0.82-0.82
		C31.66,24.28,31.29,24.64,31.29,25.1z"/>
</g>
</svg>
