<?xml version="1.0" encoding="utf-8"?>
<!-- Generator: Adobe Illustrator 27.1.1, SVG Export Plug-In . SVG Version: 6.00 Build 0)  -->
<svg version="1.1" id="_x30_" xmlns="http://www.w3.org/2000/svg" xmlns:xlink="http://www.w3.org/1999/xlink" x="0px" y="0px"
	 viewBox="0 0 77.81 78.8" style="enable-background:new 0 0 77.81 78.8;" xml:space="preserve">
<style type="text/css">
	.st0{fill:none;stroke:#000000;stroke-width:1;stroke-miterlimit:10;}
</style>
<g>
	<line class="st0" x1="54.39" y1="0.24" x2="23.92" y2="0.24"/>
	<line class="st0" x1="58.04" y1="0.24" x2="54.39" y2="0.24"/>
	<line class="st0" x1="23.92" y1="0.24" x2="20.66" y2="0.24"/>
	<polyline class="st0" points="14.76,57.68 14.76,38.2 14.76,6.57 	"/>
	<path class="st0" d="M14.76,72.58v0.14c0,0.01,0,0.02,0,0.03"/>
	<polyline class="st0" points="14.76,70.63 14.76,71.05 14.76,71.05 	"/>
	<line class="st0" x1="14.76" y1="70.62" x2="14.76" y2="70.63"/>
	<line class="st0" x1="14.76" y1="71.05" x2="14.76" y2="72.58"/>
	<path class="st0" d="M14.77,70.61c0,0.01,0,0.01,0,0.02"/>
	<path class="st0" d="M18.78,78.56c-2.27-1.24-3.73-3.49-4.02-5.98"/>
	<path class="st0" d="M14.74,71.05c0.01-0.14,0.01-0.28,0.03-0.42"/>
	<path class="st0" d="M14.74,71.05c-0.04,0.52-0.03,1.03,0.03,1.53"/>
	<path class="st0" d="M63.27,72.89c-0.28,2.69-2.16,4.93-4.76,5.68"/>
	<path class="st0" d="M14.77,6.56c0.79-2.96,3-5.33,5.89-6.33"/>
	<path class="st0" d="M58.04,0.24c2.75,1.06,4.74,3.48,5.23,6.39"/>
	<line class="st0" x1="63.26" y1="70.53" x2="63.26" y2="72.89"/>
	<polyline class="st0" points="63.26,38.01 63.26,38.02 63.26,57.16 	"/>
	<line class="st0" x1="63.26" y1="6.63" x2="63.26" y2="38.01"/>
	<line class="st0" x1="58.51" y1="78.56" x2="18.78" y2="78.56"/>
	<line class="st0" x1="14.74" y1="71.05" x2="14.76" y2="71.05"/>
	<line class="st0" x1="14.74" y1="71.05" x2="2.03" y2="71.19"/>
	<line class="st0" x1="63.26" y1="70.53" x2="76.19" y2="70.39"/>
	<line class="st0" x1="63.26" y1="70.53" x2="14.76" y2="71.05"/>
	<line class="st0" x1="1.88" y1="57.82" x2="33.23" y2="57.48"/>
	<line class="st0" x1="59.95" y1="57.19" x2="33.23" y2="57.48"/>
	<line class="st0" x1="59.95" y1="57.19" x2="76.04" y2="57.02"/>
	<line class="st0" x1="77.47" y1="59.23" x2="77.56" y2="68.33"/>
	<line class="st0" x1="0.25" y1="59.97" x2="0.34" y2="69.07"/>
	<path class="st0" d="M77.56,68.33c0,0.9-0.54,1.71-1.37,2.06"/>
	<path class="st0" d="M76.04,57.02c0.91,0.34,1.49,1.24,1.43,2.22"/>
	<path class="st0" d="M1.88,57.82C0.97,58.17,0.34,59,0.25,59.97"/>
	<path class="st0" d="M2.03,71.19c-1.05-0.12-1.8-1.07-1.69-2.12"/>
	<circle class="st0" cx="8.55" cy="64.59" r="2.8"/>
	<line class="st0" x1="17.48" y1="57.65" x2="17.54" y2="63.39"/>
	<line class="st0" x1="22.61" y1="57.6" x2="22.65" y2="61.16"/>
	<line class="st0" x1="28.1" y1="57.54" x2="28.16" y2="63.28"/>
	<line class="st0" x1="33.23" y1="57.48" x2="33.26" y2="61.04"/>
	<line class="st0" x1="38.78" y1="63.16" x2="38.72" y2="57.42"/>
	<line class="st0" x1="44.27" y1="63.1" x2="44.21" y2="57.36"/>
	<line class="st0" x1="49.37" y1="60.87" x2="49.33" y2="57.31"/>
	<line class="st0" x1="54.89" y1="62.99" x2="54.83" y2="57.25"/>
	<line class="st0" x1="59.99" y1="60.76" x2="59.95" y2="57.19"/>
	<line class="st0" x1="65.51" y1="62.87" x2="65.44" y2="57.13"/>
	<line class="st0" x1="70.61" y1="60.64" x2="70.57" y2="57.08"/>
	<circle class="st0" cx="38.51" cy="26.29" r="7.01"/>
	<polyline class="st0" points="23.92,0.24 30.29,8.26 47,8.26 54.39,0.24 	"/>
	<path class="st0" d="M28.55,37.07c2.45,5.17,6.36,11.11,10.34,10.58c2.65-0.36,5.34-3.61,7.39-6.55c1.92-2.75,3.29-5.23,4.38-8.12
		c1.16-3.1,1.99-6.67,1.21-9.85c-0.62-2.55-2.27-4.86-4.33-6.67c-1.98-1.74-4.34-3.03-6.85-3.37c-0.76-0.1-1.54-0.11-2.31-0.13
		c-2.53,0.49-5.06,0.97-7.07,2.35c-2.78,1.91-4.55,5.54-5.17,8.95C25.36,28.56,26.39,32.52,28.55,37.07z"/>
	<line class="st0" x1="26.76" y1="32.58" x2="14.77" y2="38.2"/>
	<line class="st0" x1="63.26" y1="38.01" x2="50.92" y2="32.26"/>
	<line class="st0" x1="63.27" y1="38.02" x2="63.26" y2="38.01"/>
	<path class="st0" d="M31.86,42.84l-2.1,1.1l-1.35,1.21l-0.85,1.33l-0.14,1.05l0.53,1.45l1.47,1.45l2.76,1.48l1.63,0.4h10.91
		c0.98-0.14,1.94-0.46,2.82-0.92l1.68-1.41l1.14-1.42l0.25-1.56l-0.42-1.43l-1-1.07l-2.15-1.3l-1.83-0.55"/>
</g>
</svg>
