<?xml version="1.0" encoding="utf-8"?>
<!-- Generator: Adobe Illustrator 27.1.1, SVG Export Plug-In . SVG Version: 6.00 Build 0)  -->
<svg version="1.1" id="_x30_" xmlns="http://www.w3.org/2000/svg" xmlns:xlink="http://www.w3.org/1999/xlink" x="0px" y="0px"
	 viewBox="0 0 76.28 77.97" style="enable-background:new 0 0 76.28 77.97;" xml:space="preserve">
<style type="text/css">
	.st0{fill:none;stroke:#000000;stroke-width:1;stroke-miterlimit:10;}
</style>
<g>
	<line class="st0" x1="35.78" y1="15.76" x2="35.78" y2="27.08"/>
	<line class="st0" x1="35.78" y1="27.08" x2="35.78" y2="29.86"/>
	<line class="st0" x1="35.78" y1="15.76" x2="35.78" y2="6.08"/>
	<line class="st0" x1="35.78" y1="6.08" x2="35.78" y2="3.09"/>
	<line class="st0" x1="59.6" y1="15.76" x2="59.6" y2="6.08"/>
	<line class="st0" x1="59.6" y1="6.08" x2="59.6" y2="3.09"/>
	<line class="st0" x1="59.6" y1="27.08" x2="59.6" y2="29.86"/>
	<line class="st0" x1="59.6" y1="27.08" x2="59.6" y2="15.76"/>
	<line class="st0" x1="38.47" y1="0.59" x2="57.74" y2="0.59"/>
	<line class="st0" x1="57.74" y1="32.64" x2="38.47" y2="32.64"/>
	<path class="st0" d="M35.78,3.09c0.23-1.34,1.33-2.37,2.69-2.5"/>
	<path class="st0" d="M57.74,0.59c1.13,0.29,1.9,1.34,1.85,2.5"/>
	<path class="st0" d="M59.6,29.86c0.02,1.22-0.72,2.33-1.85,2.78"/>
	<path class="st0" d="M38.47,32.64c-1.48-0.09-2.65-1.29-2.69-2.78"/>
	<line class="st0" x1="40.3" y1="6.08" x2="35.78" y2="6.08"/>
	<line class="st0" x1="40.3" y1="27.08" x2="35.78" y2="27.08"/>
	<line class="st0" x1="55.08" y1="6.08" x2="59.6" y2="6.08"/>
	<line class="st0" x1="55.08" y1="27.08" x2="59.6" y2="27.08"/>
	<circle class="st0" cx="47.62" cy="16.6" r="6.93"/>
	<line class="st0" x1="0.34" y1="1.65" x2="0.25" y2="75.81"/>
	<line class="st0" x1="13.66" y1="44.48" x2="13.66" y2="38.99"/>
	<line class="st0" x1="13.69" y1="22.88" x2="13.66" y2="38.99"/>
	<line class="st0" x1="13.65" y1="49.61" x2="13.66" y2="44.48"/>
	<line class="st0" x1="13.65" y1="49.61" x2="13.64" y2="60.23"/>
	<line class="st0" x1="13.7" y1="12.26" x2="13.69" y2="22.88"/>
	<line class="st0" x1="13.7" y1="7.13" x2="13.7" y2="12.26"/>
	<line class="st0" x1="13.7" y1="7.13" x2="13.71" y2="1.66"/>
	<line class="st0" x1="13.64" y1="60.23" x2="13.62" y2="75.83"/>
	<line class="st0" x1="2.38" y1="0.26" x2="11.48" y2="0.26"/>
	<line class="st0" x1="11.48" y1="77.48" x2="2.38" y2="77.48"/>
	<path class="st0" d="M2.38,0.26c-0.9,0.01-1.71,0.56-2.04,1.39"/>
	<path class="st0" d="M11.48,0.26c0.97-0.07,1.88,0.5,2.23,1.41"/>
	<path class="st0" d="M13.62,75.83c-0.34,0.91-1.17,1.55-2.14,1.65"/>
	<path class="st0" d="M2.38,77.48c-1.05,0.12-2-0.62-2.14-1.67"/>
	<circle class="st0" cx="6.79" cy="69.22" r="2.8"/>
	<line class="st0" x1="7.9" y1="60.22" x2="13.64" y2="60.23"/>
	<line class="st0" x1="13.64" y1="55.1" x2="10.08" y2="55.1"/>
	<line class="st0" x1="7.91" y1="49.6" x2="13.65" y2="49.61"/>
	<line class="st0" x1="10.09" y1="44.48" x2="13.66" y2="44.48"/>
	<line class="st0" x1="7.93" y1="38.98" x2="13.66" y2="38.99"/>
	<line class="st0" x1="13.66" y1="38.99" x2="13.67" y2="38.99"/>
	<line class="st0" x1="13.67" y1="33.5" x2="7.93" y2="33.49"/>
	<line class="st0" x1="10.11" y1="28.37" x2="13.68" y2="28.37"/>
	<line class="st0" x1="7.95" y1="22.87" x2="13.69" y2="22.88"/>
	<line class="st0" x1="10.13" y1="17.75" x2="13.69" y2="17.75"/>
	<line class="st0" x1="7.96" y1="12.26" x2="13.7" y2="12.26"/>
	<line class="st0" x1="10.14" y1="7.13" x2="13.7" y2="7.13"/>
	<line class="st0" x1="35.78" y1="15.76" x2="33.27" y2="15.76"/>
	<line class="st0" x1="59.6" y1="15.76" x2="62.54" y2="15.76"/>
	<line class="st0" x1="67.04" y1="34.32" x2="67.04" y2="20.78"/>
	<line class="st0" x1="63.71" y1="39.03" x2="64" y2="39.03"/>
	<line class="st0" x1="63.71" y1="39.03" x2="60.02" y2="39.03"/>
	<line class="st0" x1="31.89" y1="39.03" x2="35.09" y2="39.03"/>
	<line class="st0" x1="28.31" y1="20.89" x2="28.31" y2="35.52"/>
	<path class="st0" d="M28.31,20.89c0-2.77,2.2-5.03,4.96-5.13"/>
	<path class="st0" d="M62.54,15.76c2.46,0.47,4.29,2.52,4.49,5.02"/>
	<path class="st0" d="M64,39.03c1.75-0.95,2.89-2.72,3.04-4.71"/>
	<path class="st0" d="M31.89,39.03c-1.7-0.51-3.03-1.82-3.58-3.51"/>
	<line class="st0" x1="60.02" y1="39.03" x2="60.02" y2="46.36"/>
	<line class="st0" x1="35.09" y1="46.62" x2="35.09" y2="39.03"/>
	<line class="st0" x1="60.02" y1="39.03" x2="35.09" y2="39.03"/>
	<path class="st0" d="M35.09,46.62c0.17,0.83,0.57,1.56,1.14,2.13"/>
	<path class="st0" d="M36.24,48.75c0.57,0.57,1.31,0.97,2.13,1.13"/>
	<path class="st0" d="M60.02,46.36c-0.02,1.78-1.34,3.27-3.1,3.52"/>
	<line class="st0" x1="43.33" y1="49.88" x2="38.37" y2="49.88"/>
	<line class="st0" x1="56.92" y1="49.88" x2="52.11" y2="49.88"/>
	<line class="st0" x1="43.33" y1="49.88" x2="43.33" y2="74.7"/>
	<line class="st0" x1="52.11" y1="74.79" x2="52.11" y2="75.28"/>
	<line class="st0" x1="52.11" y1="49.88" x2="52.11" y2="74.79"/>
	<line class="st0" x1="43.33" y1="74.7" x2="43.33" y2="74.88"/>
	<line class="st0" x1="43.33" y1="49.88" x2="52.11" y2="49.88"/>
	<path class="st0" d="M44.98,77.66c-1.05-0.61-1.68-1.74-1.64-2.95"/>
	<path class="st0" d="M52.11,74.79c0.09,1.12-0.42,2.21-1.33,2.86"/>
	<line class="st0" x1="44.98" y1="77.66" x2="50.78" y2="77.66"/>
	<polyline class="st0" points="36.24,48.75 26.28,77.65 20.48,77.65 	"/>
	<line class="st0" x1="19.56" y1="73.74" x2="31.67" y2="38.96"/>
	<line class="st0" x1="63.71" y1="39.03" x2="75.79" y2="73.23"/>
	<polyline class="st0" points="74.58,77.72 69.42,77.67 58.55,49.22 	"/>
	<path class="st0" d="M19.56,73.74c-0.35,1.38-0.01,2.84,0.91,3.91"/>
	<path class="st0" d="M75.79,73.23c0.58,1.6,0.1,3.39-1.21,4.49"/>
</g>
</svg>
