<?xml version="1.0" encoding="utf-8"?>
<!-- Generator: Adobe Illustrator 27.1.1, SVG Export Plug-In . SVG Version: 6.00 Build 0)  -->
<svg version="1.1" id="_x30_" xmlns="http://www.w3.org/2000/svg" xmlns:xlink="http://www.w3.org/1999/xlink" x="0px" y="0px"
	 viewBox="0 0 78.69 93.09" style="enable-background:new 0 0 78.69 93.09;" xml:space="preserve">
<style type="text/css">
	.st0{fill:none;stroke:#000000;stroke-width:1;stroke-miterlimit:10;}
</style>
<g>
	<polygon class="st0" points="78.34,39.34 39.27,0.35 1.13,38.57 6.97,44.32 39.52,11.71 72.79,44.9 	"/>
	<polyline class="st0" points="9.38,41.91 9.38,77.45 69.85,77.45 69.79,41.91 	"/>
	<polyline class="st0" points="65.01,26.04 65.17,8.5 55.47,8.5 55.47,16.53 	"/>
	<circle class="st0" cx="39.44" cy="51.31" r="11.1"/>
	<path class="st0" d="M21.29,46.49c-0.75,2.84-0.83,5.82-0.23,8.7"/>
	<path class="st0" d="M33.6,69.16c-2.79-0.91-5.33-2.47-7.42-4.54"/>
	<path class="st0" d="M44.34,69.44c2.84-0.77,5.46-2.19,7.64-4.15"/>
	<path class="st0" d="M57.59,56.13c0.75-2.84,0.83-5.82,0.23-8.7"/>
	<path class="st0" d="M45.27,33.46c2.79,0.91,5.33,2.47,7.42,4.54"/>
	<path class="st0" d="M26.89,37.33c2.19-1.96,4.81-3.39,7.64-4.15"/>
	<line class="st0" x1="35.94" y1="28.11" x2="44.05" y2="28.17"/>
	<line class="st0" x1="17.6" y1="42.74" x2="21.71" y2="35.74"/>
	<line class="st0" x1="21.09" y1="65.93" x2="17.09" y2="58.88"/>
	<line class="st0" x1="42.93" y1="74.51" x2="34.82" y2="74.45"/>
	<line class="st0" x1="61.27" y1="59.88" x2="57.17" y2="66.88"/>
	<line class="st0" x1="61.78" y1="43.74" x2="57.78" y2="36.69"/>
	<line class="st0" x1="26.89" y1="37.33" x2="21.71" y2="35.74"/>
	<line class="st0" x1="21.29" y1="46.49" x2="17.6" y2="42.74"/>
	<line class="st0" x1="21.06" y1="55.18" x2="17.09" y2="58.88"/>
	<line class="st0" x1="21.09" y1="65.93" x2="26.19" y2="64.62"/>
	<line class="st0" x1="34.82" y1="74.45" x2="33.6" y2="69.16"/>
	<line class="st0" x1="44.34" y1="69.44" x2="42.93" y2="74.51"/>
	<line class="st0" x1="57.17" y1="66.88" x2="51.98" y2="65.29"/>
	<line class="st0" x1="57.59" y1="56.13" x2="61.27" y2="59.88"/>
	<line class="st0" x1="57.81" y1="47.44" x2="61.78" y2="43.74"/>
	<line class="st0" x1="52.69" y1="38" x2="57.78" y2="36.69"/>
	<line class="st0" x1="44.05" y1="28.17" x2="45.27" y2="33.46"/>
	<line class="st0" x1="34.54" y1="33.18" x2="35.94" y2="28.11"/>
	<line class="st0" x1="14.91" y1="72.08" x2="14.91" y2="66.71"/>
	<line class="st0" x1="21.32" y1="72.08" x2="14.91" y2="72.08"/>
	<line class="st0" x1="75.81" y1="92.84" x2="1.65" y2="92.75"/>
	<line class="st0" x1="60.23" y1="79.45" x2="44.48" y2="79.43"/>
	<line class="st0" x1="12.26" y1="79.39" x2="22.88" y2="79.4"/>
	<line class="st0" x1="44.48" y1="79.43" x2="22.88" y2="79.4"/>
	<line class="st0" x1="12.26" y1="79.39" x2="7.13" y2="79.38"/>
	<line class="st0" x1="7.13" y1="79.38" x2="1.66" y2="79.38"/>
	<line class="st0" x1="60.23" y1="79.45" x2="75.83" y2="79.47"/>
	<line class="st0" x1="0.26" y1="81.61" x2="0.26" y2="90.71"/>
	<line class="st0" x1="77.48" y1="81.61" x2="77.48" y2="90.71"/>
	<path class="st0" d="M1.65,92.75c-0.84-0.34-1.39-1.14-1.39-2.04"/>
	<path class="st0" d="M1.66,79.38c-0.91,0.35-1.48,1.26-1.41,2.23"/>
	<path class="st0" d="M77.48,81.61c-0.1-0.97-0.74-1.8-1.65-2.14"/>
	<path class="st0" d="M77.48,90.71c0.12,1.05-0.62,2-1.67,2.14"/>
	<circle class="st0" cx="69.22" cy="86.3" r="2.8"/>
	<line class="st0" x1="60.23" y1="79.45" x2="60.22" y2="85.19"/>
	<line class="st0" x1="55.1" y1="79.44" x2="55.1" y2="83.01"/>
	<line class="st0" x1="49.61" y1="79.44" x2="49.6" y2="85.18"/>
	<line class="st0" x1="44.48" y1="79.43" x2="44.48" y2="82.99"/>
	<line class="st0" x1="38.99" y1="79.42" x2="38.98" y2="85.16"/>
	<line class="st0" x1="33.5" y1="79.42" x2="33.49" y2="85.16"/>
	<line class="st0" x1="28.37" y1="79.41" x2="28.37" y2="82.97"/>
	<line class="st0" x1="22.87" y1="85.14" x2="22.88" y2="79.4"/>
	<line class="st0" x1="17.75" y1="79.4" x2="17.75" y2="82.96"/>
	<line class="st0" x1="12.26" y1="79.39" x2="12.26" y2="85.13"/>
	<line class="st0" x1="7.13" y1="79.38" x2="7.13" y2="82.95"/>
</g>
</svg>
