<?xml version="1.0" encoding="utf-8"?>
<!-- Generator: Adobe Illustrator 27.1.1, SVG Export Plug-In . SVG Version: 6.00 Build 0)  -->
<svg version="1.1" id="_x30_" xmlns="http://www.w3.org/2000/svg" xmlns:xlink="http://www.w3.org/1999/xlink" x="0px" y="0px"
	 viewBox="0 0 78.22 77.45" style="enable-background:new 0 0 78.22 77.45;" xml:space="preserve">
<style type="text/css">
	.st0{fill:none;stroke:#000000;stroke-width:1;stroke-miterlimit:10;}
</style>
<g>
	<line class="st0" x1="5.8" y1="37.52" x2="5.8" y2="16.04"/>
	<line class="st0" x1="5.8" y1="37.52" x2="5.8" y2="39.36"/>
	<line class="st0" x1="5.8" y1="16.04" x2="5.8" y2="15.98"/>
	<line class="st0" x1="12.49" y1="43.28" x2="8.13" y2="43.28"/>
	<line class="st0" x1="17.14" y1="43.28" x2="12.49" y2="43.28"/>
	<line class="st0" x1="27.05" y1="43.28" x2="31.06" y2="43.28"/>
	<line class="st0" x1="27.05" y1="43.28" x2="22.21" y2="43.28"/>
	<path class="st0" d="M5.8,16.04c-0.02-1.85,1.38-3.41,3.23-3.58"/>
	<path class="st0" d="M30.22,12.46c1.73,0.11,3.17,1.39,3.47,3.1"/>
	<path class="st0" d="M33.69,39.69c-0.12,1.6-1.14,2.99-2.63,3.58"/>
	<path class="st0" d="M8.13,43.28c-1.38-0.84-2.25-2.31-2.33-3.92"/>
	<line class="st0" x1="33.69" y1="37.52" x2="33.69" y2="39.69"/>
	<line class="st0" x1="33.69" y1="37.52" x2="33.69" y2="15.56"/>
	<line class="st0" x1="12.49" y1="43.28" x2="0.24" y2="77.13"/>
	<line class="st0" x1="0.24" y1="77.13" x2="6.42" y2="77.13"/>
	<line class="st0" x1="17.14" y1="47.5" x2="17.14" y2="43.28"/>
	<line class="st0" x1="22.21" y1="47.51" x2="22.21" y2="43.28"/>
	<polyline class="st0" points="17.14,47.5 17.14,70.71 22.21,70.71 22.21,47.51 	"/>
	<line class="st0" x1="17.14" y1="43.28" x2="22.21" y2="43.28"/>
	<line class="st0" x1="17.14" y1="47.5" x2="6.42" y2="77.13"/>
	<line class="st0" x1="22.21" y1="47.51" x2="32.93" y2="77.36"/>
	<line class="st0" x1="39.29" y1="77.36" x2="32.93" y2="77.36"/>
	<line class="st0" x1="39.29" y1="77.36" x2="27.05" y2="43.28"/>
	<line class="st0" x1="14.71" y1="37.52" x2="5.8" y2="37.52"/>
	<line class="st0" x1="24.78" y1="37.52" x2="33.69" y2="37.52"/>
	
		<ellipse transform="matrix(0.9732 -0.2298 0.2298 0.9732 -5.3794 5.1624)" class="st0" cx="19.48" cy="25.68" rx="6.63" ry="6.63"/>
	<polyline class="st0" points="25.02,12.46 25.02,5.95 14.3,5.95 14.3,12.46 	"/>
	<line class="st0" x1="9.02" y1="6.35" x2="9.02" y2="12.46"/>
	<line class="st0" x1="30.22" y1="12.46" x2="30.44" y2="12.46"/>
	<line class="st0" x1="14.3" y1="12.46" x2="9.02" y2="12.46"/>
	<line class="st0" x1="30.22" y1="12.46" x2="25.02" y2="12.46"/>
	<line class="st0" x1="25.02" y1="12.46" x2="14.3" y2="12.46"/>
	<line class="st0" x1="25.08" y1="0.24" x2="14.41" y2="0.24"/>
	<path class="st0" d="M9.02,6.35c0.5-2.89,2.59-5.25,5.39-6.11"/>
	<path class="st0" d="M25.08,0.24c2.68,0.83,4.72,3.02,5.36,5.75"/>
	<line class="st0" x1="30.44" y1="12.46" x2="30.44" y2="5.99"/>
	<line class="st0" x1="38.06" y1="32.46" x2="54.99" y2="32.28"/>
	<line class="st0" x1="64.66" y1="32.18" x2="54.99" y2="32.28"/>
	<line class="st0" x1="64.66" y1="32.18" x2="77.86" y2="58.67"/>
	<line class="st0" x1="67.11" y1="58.67" x2="73.24" y2="58.67"/>
	<line class="st0" x1="67.11" y1="58.67" x2="37.87" y2="58.67"/>
	<line class="st0" x1="73.24" y1="58.67" x2="77.86" y2="58.67"/>
	<line class="st0" x1="73.24" y1="58.67" x2="77.74" y2="67.69"/>
	<line class="st0" x1="37.75" y1="67.69" x2="55.5" y2="67.69"/>
	<line class="st0" x1="73.24" y1="67.69" x2="77.74" y2="67.69"/>
	<line class="st0" x1="55.5" y1="67.69" x2="73.24" y2="67.69"/>
	<line class="st0" x1="58.06" y1="77.24" x2="78" y2="77.24"/>
	<line class="st0" x1="58.06" y1="77.24" x2="42.51" y2="77.24"/>
	<line class="st0" x1="78" y1="77.24" x2="73.24" y2="67.69"/>
	<path class="st0" d="M55.5,67.69c-1.31,1.71-1.99,3.62-1.5,5.22c0.51,1.66,2.28,3,4.06,4.33"/>
	<path class="st0" d="M67.11,58.67c-0.67,3.14-4.97,3.76-8.39,6.03c-1.24,0.82-2.36,1.87-3.21,2.99"/>
	<path class="st0" d="M67.11,58.67c0.14-0.66,0.12-1.43,0-2.17c-0.32-2.01-1.38-3.79-2.83-5.19c-1.26-1.2-2.82-2.11-4.43-2.55
		c-2.54-0.68-5.21-0.17-8.02,0c-2.26,0.14-4.61,0.06-6.32-1.41c-1.41-1.21-2.39-3.38-1.89-5c0.37-1.2,1.55-2.1,2.92-2.64
		c2.93-1.16,6.77-0.67,8.02-2.55c0.73-1.09,0.58-2.99,0.43-4.89"/>
</g>
</svg>
